PathFileType	4	(X/Y/Z)	/Users/itak/Documents/Research/Walk-IL/dataset/trc/00192_00008.trc
DataRate	CameraRate	NumFrames	NumMarkers	Units	OrigDataRate	OrigDataStartFrame	OrigNumFrames
100.000000	100.000000	4	53	mm	100.000000	595	794
Frame#	Time	RPSI			LPSI			L3			STRN			T10			C7			CLAV			RBAK			LBAK			LSHO			LUPA			LAEL			LAOL			LWTS			LWPS			LFRA			LIFD			LHPS			LHTS			RSHO			RUPA			RAEL			RAOL			RWTS			RWPS			RFRA			RIFD			RHTS			RHPS			RBHD			LFHD			RFHD			LBHD			LHIP			RHIP			RASI			LASI			LKNE			LTHI			LANK			LTIP			LTOE			LMT1			LMT5			LHEE			RKNE			RTHI			RANK			RTIP			RTOE			RMT1			RMT5			RHEE			
		X1	Y1	Z1	X2	Y2	Z2	X3	Y3	Z3	X4	Y4	Z4	X5	Y5	Z5	X6	Y6	Z6	X7	Y7	Z7	X8	Y8	Z8	X9	Y9	Z9	X10	Y10	Z10	X11	Y11	Z11	X12	Y12	Z12	X13	Y13	Z13	X14	Y14	Z14	X15	Y15	Z15	X16	Y16	Z16	X17	Y17	Z17	X18	Y18	Z18	X19	Y19	Z19	X20	Y20	Z20	X21	Y21	Z21	X22	Y22	Z22	X23	Y23	Z23	X24	Y24	Z24	X25	Y25	Z25	X26	Y26	Z26	X27	Y27	Z27	X28	Y28	Z28	X29	Y29	Z29	X30	Y30	Z30	X31	Y31	Z31	X32	Y32	Z32	X33	Y33	Z33	X34	Y34	Z34	X35	Y35	Z35	X36	Y36	Z36	X37	Y37	Z37	X38	Y38	Z38	X39	Y39	Z39	X40	Y40	Z40	X41	Y41	Z41	X42	Y42	Z42	X43	Y43	Z43	X44	Y44	Z44	X45	Y45	Z45	X46	Y46	Z46	X47	Y47	Z47	X48	Y48	Z48	X49	Y49	Z49	X50	Y50	Z50	X51	Y51	Z51	X52	Y52	Z52	X53	Y53	Z53	

596	5.95	1130.39013671875	1025.45947265625	80.17845916748047	1247.743286132812	1033.428100585938	116.1871566772461	1182.192016601562	1063.13671875	95.13787078857422	1110.693359375	1284.989868164062	336.9281921386719	1189.26318359375	1226.092529296875	53.07262420654297	1180.969970703125	1497.494750976562	112.6412048339844	1127.737548828125	1398.113037109375	310.2446899414062	1095.5224609375	1319.7509765625	23.53594589233398	1278.474609375	1474.528198242188	129.0160980224609	1335.877563476562	1465.444946289062	220.4502563476562	1418.890991210938	1337.990112304688	198.1166229248047	1453.934692382812	1127.5029296875	208.833984375	1383.070678710938	1101.276977539062	163.2760009765625	1452.476440429688	911.5147094726562	346.79150390625	1489.365844726562	881.7760620117188	264.77392578125	1479.012939453125	1020.584777832031	232.2125244140625	1447.600830078125	737.8917236328125	382.7540893554688	1496.281860351562	816.7431030273438	295.8998718261719	1484.327514648438	836.3966064453125	365.2000427246094	990.415283203125	1476.72802734375	128.1502685546875	929.2721557617188	1410.321533203125	90.1270751953125	886.62255859375	1116.6875	58.1721305847168	984.1481323242188	1116.8125	76.17484283447266	891.9292602539062	933.0652465820312	253.8281097412109	866.600830078125	889.2374267578125	179.314453125	868.1621704101562	1044.760986328125	94.28914642333984	931.9634399414062	761.3487548828125	325.9299621582031	887.9685668945312	849.0157470703125	304.4467163085938	871.3368530273438	816.789306640625	229.9231109619141	1084.773803710938	1660.776123046875	176.0915832519531	1154.164428710938	1684.6611328125	380.7335205078125	1032.715209960938	1672.613525390625	341.6500549316406	1215.631469726562	1682.11376953125	211.2568054199219	1330.663330078125	987.0055541992188	259.2029113769531	962.9492797851562	976.3041381835938	194.1864471435547	989.5526123046875	1020.764831542969	282.7734375	1235.666259765625	1030.802856445312	354.6156921386719	1245.797485351562	540.3781127929688	506.2173461914062	1291.16162109375	667.0817260742188	440.8483581542969	1282.570068359375	58.06452560424805	575.44677734375	1277.332763671875	313.3154602050781	544.5653686523438	1163.15576171875	138.2669067382812	734.25634765625	1144.032836914062	117.4037017822266	674.1661987304688	1262.346801757812	83.54203033447266	683.2593383789062	1247.12841796875	42.33118057250977	500.6269836425781	1074.342529296875	483.8123779296875	219.8274536132812	978.974853515625	744.6952514648438	249.4258880615234	1166.244750976562	33.19841003417969	60.78712844848633	1122.531982421875	362.0889892578125	222.7451019287109	1196.084594726562	36.49172973632812	284.3914489746094	1240.188354492188	36.06790161132812	229.8878784179688	1128.169799804688	35.28889465332031	172.8704071044922	1234.828247070312	33.20384216308594	11.3513011932373	
597	5.96	1131.488037109375	1024.087524414062	88.05079650878906	1248.376953125	1032.097412109375	125.6139144897461	1183.05615234375	1061.574829101562	103.7667694091797	1108.942626953125	1283.657592773438	344.3605041503906	1190.463623046875	1224.535034179688	61.42285919189453	1181.685913085938	1496.045166015625	120.6074066162109	1126.47705078125	1396.714965820312	317.7838439941406	1097.040283203125	1318.292114257812	30.87014198303223	1278.950561523438	1472.953247070312	137.9613342285156	1335.54150390625	1463.76416015625	229.7891235351562	1418.681030273438	1336.388549804688	207.6212921142578	1453.938232421875	1126.012817382812	217.6799926757812	1383.299560546875	1099.746948242188	171.8300170898438	1452.092041015625	909.8348999023438	355.2541809082031	1489.36767578125	880.1159057617188	273.4574584960938	1479.020263671875	1018.968627929688	240.9942474365234	1447.140258789062	736.1111450195312	390.9555358886719	1496.192016601562	815.1033935546875	304.4877319335938	1483.930419921875	834.7310180664062	373.7474975585938	990.9532470703125	1475.486938476562	134.3288421630859	930.15673828125	1409.150756835938	95.70977020263672	887.8704833984375	1115.618408203125	62.99301528930664	984.9403076171875	1115.442749023438	82.38169097900391	890.5800170898438	930.8342895507812	257.4657592773438	866.0878295898438	887.42626953125	182.6412811279297	868.8701782226562	1043.6015625	98.52976989746094	929.838623046875	758.4144287109375	328.6934509277344	886.0517578125	845.9572143554688	307.0588684082031	870.4754638671875	814.7491455078125	232.5347442626953	1085.19140625	1659.59521484375	183.4469604492188	1153.052001953125	1682.996948242188	388.5831604003906	1031.8642578125	1671.3369140625	348.5767822265625	1215.8330078125	1680.627685546875	219.4982147216797	1329.339233398438	985.425537109375	269.6836853027344	961.9000244140625	974.5138549804688	200.87548828125	988.054443359375	1019.17822265625	288.8204650878906	1233.22021484375	1029.389404296875	363.934814453125	1240.67626953125	540.0704956054688	516.71142578125	1288.018188476562	665.8346557617188	451.2590637207031	1271.82275390625	59.11085510253906	597.1472778320312	1269.419799804688	313.8482360839844	560.596435546875	1149.791137695312	143.4703216552734	751.721435546875	1131.755004882812	121.5953674316406	691.6703491210938	1249.697631835938	87.18392181396484	703.9385986328125	1237.880981445312	42.17649841308594	521.8999633789062	1074.042358398438	482.301025390625	224.5596008300781	978.1290283203125	743.2953491210938	254.3425140380859	1166.658447265625	33.56856155395508	60.95515823364258	1122.138671875	360.7647094726562	226.4622192382812	1196.046630859375	36.44528579711914	284.5533447265625	1240.259643554688	35.93517684936523	230.1063079833984	1128.416259765625	35.38948440551758	172.9465637207031	1235.206420898438	33.89441299438477	11.48976802825928	
598	5.97	1132.52197265625	1022.693176269531	95.96333312988281	1248.927368164062	1030.7021484375	135.0507049560547	1183.835205078125	1059.973754882812	112.4664993286133	1107.19775390625	1282.270751953125	351.8530578613281	1191.599243164062	1222.96240234375	69.81414031982422	1182.344848632812	1494.563354492188	128.6761627197266	1125.208618164062	1395.271606445312	325.3997802734375	1098.477783203125	1316.803100585938	38.31722640991211	1279.358154296875	1471.325927734375	146.9890594482422	1335.16259765625	1462.054931640625	239.1875762939453	1418.402099609375	1334.729248046875	217.1544952392578	1453.799194335938	1124.449829101562	226.5399017333984	1383.378051757812	1098.138549804688	180.4423675537109	1451.557250976562	908.0224609375	363.6175231933594	1489.208862304688	878.38623046875	282.00439453125	1478.875732421875	1017.271179199219	249.7360076904297	1446.539428710938	734.169677734375	398.9642333984375	1495.935791015625	813.36376953125	312.90966796875	1483.373779296875	832.9113159179688	382.147705078125	991.4564208984375	1474.211547851562	140.6479644775391	931.000244140625	1407.954711914062	101.4248123168945	889.0728759765625	1114.534301757812	67.90315246582031	985.7113647460938	1114.086669921875	88.63111114501953	889.1422729492188	928.62158203125	261.1979064941406	865.5380859375	885.6045532226562	186.0449829101562	869.5457763671875	1042.429565429688	102.8703765869141	927.57763671875	755.52978515625	331.6309814453125	884.0169677734375	842.995361328125	309.8239440917969	869.5172729492188	812.7103271484375	235.2499847412109	1085.594848632812	1658.371826171875	190.8562316894531	1151.94287109375	1681.323852539062	396.49072265625	1031.010864257812	1670.073364257812	355.5491638183594	1216.01513671875	1679.107421875	227.7827301025391	1327.9375	983.7772827148438	280.1918640136719	960.818603515625	972.63623046875	207.736328125	986.5074462890625	1017.492004394531	294.9408874511719	1230.745849609375	1027.9287109375	373.2619934082031	1235.558227539062	539.680419921875	527.1134643554688	1284.7861328125	664.516357421875	461.6161804199219	1261.183349609375	60.25010681152344	617.9215698242188	1261.554443359375	314.3763122558594	576.1456298828125	1136.617919921875	148.3757171630859	768.2871704101562	1119.654907226562	125.5620880126953	708.2840576171875	1237.16748046875	90.70948791503906	723.6250610351562	1228.7490234375	42.18471908569336	542.2738037109375	1073.835083007812	480.7555236816406	229.2948760986328	977.2398681640625	741.8776245117188	259.277099609375	1167.269165039062	33.99705123901367	61.10013961791992	1121.583862304688	359.5022888183594	230.0759429931641	1195.964233398438	36.42338562011719	284.6918029785156	1240.330200195312	35.79348373413086	230.3389892578125	1128.731079101562	35.50067520141602	172.9837646484375	1235.815185546875	34.72414398193359	11.67642784118652	
599	5.98	1133.494140625	1021.289489746094	103.926155090332	1249.403198242188	1029.263427734375	144.4812774658203	1184.531982421875	1058.337890625	121.2241668701172	1105.45751953125	1280.832397460938	359.4041442871094	1192.67529296875	1221.393920898438	78.23817443847656	1182.943603515625	1493.058837890625	136.8488922119141	1123.927734375	1393.784423828125	333.0913696289062	1099.835815429688	1315.293823242188	45.8704719543457	1279.69970703125	1469.660034179688	156.0974731445312	1334.738159179688	1460.326293945312	248.6564025878906	1418.055541992188	1333.019165039062	226.7453460693359	1453.520874023438	1122.820068359375	235.4271087646484	1383.302734375	1096.464965820312	189.1273956298828	1450.8828125	906.0748291015625	371.8853454589844	1488.883666992188	876.5895385742188	290.4076843261719	1478.580688476562	1015.506713867188	258.4418640136719	1445.801147460938	732.0476684570312	406.7627868652344	1495.5068359375	811.5206298828125	321.1554260253906	1482.665649414062	830.9318237304688	390.3924865722656	991.91845703125	1472.905639648438	147.1083984375	931.7979736328125	1406.7314453125	107.2757263183594	890.2138671875	1113.435424804688	72.9146728515625	986.4929809570312	1112.78564453125	94.85127258300781	887.6461791992188	926.432373046875	265.0456237792969	864.9798583984375	883.7911376953125	189.5233459472656	870.1787109375	1041.246337890625	107.318244934082	925.197509765625	752.7177734375	334.7608337402344	881.8952026367188	840.1674194335938	312.7889709472656	868.4608154296875	810.68505859375	238.0794525146484	1085.982543945312	1657.109619140625	198.3256988525391	1150.839111328125	1679.661254882812	404.4690551757812	1030.154174804688	1668.825805664062	362.5712890625	1216.17138671875	1677.5517578125	236.1354675292969	1326.465698242188	982.0771484375	290.7630310058594	959.7561645507812	970.74609375	214.6849212646484	984.9056396484375	1015.753051757812	301.1303405761719	1228.2373046875	1026.4375	382.6029357910156	1230.46533203125	539.2088623046875	537.4247436523438	1281.452880859375	663.1491088867188	471.9392395019531	1250.714477539062	61.4227409362793	637.769775390625	1253.786010742188	314.870361328125	591.19140625	1123.662963867188	152.9402618408203	783.9457397460938	1107.771728515625	129.2497253417969	724.0042114257812	1224.781494140625	94.03458404541016	742.3397827148438	1219.79736328125	42.30972671508789	561.7361450195312	1073.67578125	479.2248840332031	233.97705078125	976.2767333984375	740.456298828125	264.2131652832031	1168.10302734375	34.49138259887695	61.21712112426758	1120.835815429688	358.3222045898438	233.5624694824219	1195.81982421875	36.42248916625977	284.8035888671875	1240.402221679688	35.65297317504883	230.5897216796875	1129.113403320312	35.60672760009766	172.9644012451172	1236.707397460938	35.71013259887695	11.92938899993896	
